<svg xmlns="http://www.w3.org/2000/svg" width="99.47" height="96" fill="none" overflow="visible"><path fill="#000" d="M14.716 28.098c0-3.233 2.658-5.854 5.937-5.854h20.186v67.902c0 3.233-2.658 5.854-5.937 5.854H0V80.902a3 3 0 0 1 3-3h12.023ZM40.839 5.85c0-3.231 2.734-5.85 6.106-5.85h52.517v22.231l-.001 36.884-.001 18.443v13.831l.01 1.139A3.443 3.443 0 0 1 96.028 96H72l-.5-73.77-30.661.001Z"/><path fill="#8F8F8F" d="M45.588 53.854c0-3.233 2.659-5.854 5.937-5.854h14.249v9.366c0 3.233-2.658 5.854-5.937 5.854H45.588Z"/></svg>