<svg xmlns="http://www.w3.org/2000/svg" width="480" viewBox="0 20 320 145" role="img" aria-label="Illustration: building not watching">
<path d="M130 40h60v28c0 16-13 26-30 26s-30-10-30-26z" fill="#EF9F27" opacity="0.85"/>
<path d="M130 46h-16c0 14 7 20 16 22" fill="none" stroke="#BA7517" stroke-width="2"/>
<path d="M190 46h16c0 14-7 20-16 22" fill="none" stroke="#BA7517" stroke-width="2"/>
<rect x="152" y="94" width="16" height="12" fill="#BA7517"/>
<rect x="138" y="106" width="44" height="8" rx="2" fill="#888780"/>
<rect x="60" y="120" width="46" height="24" rx="5" fill="none" stroke="#378ADD" stroke-width="2"/>
<circle cx="70" cy="148" r="6" fill="none" stroke="#378ADD" stroke-width="2"/>
<circle cx="96" cy="148" r="6" fill="none" stroke="#378ADD" stroke-width="2"/>
<line x1="83" y1="120" x2="83" y2="110" stroke="#378ADD" stroke-width="2"/>
<text x="238" y="90" font-size="26" font-weight="600" fill="#BA7517" text-anchor="middle" font-family="system-ui, -apple-system, 'Segoe UI', Roboto, Helvetica, Arial, sans-serif">30+</text>
<text x="238" y="108" font-size="11" fill="#888780" text-anchor="middle" font-family="system-ui, -apple-system, 'Segoe UI', Roboto, Helvetica, Arial, sans-serif">national wins</text>
</svg>